M48
INCH,TZ
T1C0.020
T2C0.025
T3C0.032
T4C0.126
%
G05
T1
X053641Y-035433
X053641Y-037354
T2
X050492Y-032677
X051575Y-032677
X051575Y-041535
X051575Y-042126
X051575Y-042716
X052460Y-039665
X052657Y-032677
X053051Y-036319
X053346Y-041535
X053346Y-042126
X053346Y-042716
X053838Y-032677
X054330Y-039173
X054921Y-039173
X056102Y-034448
X056397Y-037893
X057578Y-031988
X057775Y-040354
X057972Y-036023
X058071Y-039763
X058661Y-037106
X058760Y-033366
X058858Y-037598
X059941Y-034842
T3
X051109Y-030805
X052109Y-030805
X053109Y-030805
X054109Y-030805
X055109Y-030805
X056109Y-030805
X057109Y-030805
X058109Y-030805
X059109Y-030805
X060109Y-030805
T4
X048720Y-031102
X048720Y-041831
X062303Y-031102
X062303Y-041831
T0
M30
