G04 (created by PCBNEW (2010-03-14)-final) date Fri 03 Jun 2011 23:41:35 BST*
G01*
G70*
G90*
%MOIN*%
G04 Gerber Fmt 3.4, Leading zero omitted, Abs format*
%FSLAX34Y34*%
G04 APERTURE LIST*
%ADD10C,0.001000*%
%ADD11C,0.015000*%
%ADD12C,0.008000*%
G04 APERTURE END LIST*
G54D10*
G54D11*
X63681Y-43209D02*
X47342Y-43209D01*
X47342Y-43209D02*
X47342Y-29724D01*
X63681Y-29724D02*
X63681Y-43209D01*
X47342Y-29724D02*
X63681Y-29724D01*
G54D10*
X53543Y-35335D02*
X53739Y-35531D01*
X53739Y-35335D02*
X53543Y-35531D01*
X53543Y-37256D02*
X53739Y-37452D01*
X53739Y-37256D02*
X53543Y-37452D01*
X50617Y-32677D02*
X50614Y-32701D01*
X50607Y-32724D01*
X50596Y-32746D01*
X50580Y-32765D01*
X50561Y-32780D01*
X50540Y-32792D01*
X50517Y-32799D01*
X50492Y-32801D01*
X50469Y-32799D01*
X50446Y-32792D01*
X50424Y-32781D01*
X50405Y-32766D01*
X50389Y-32747D01*
X50378Y-32726D01*
X50370Y-32702D01*
X50368Y-32678D01*
X50370Y-32655D01*
X50376Y-32631D01*
X50387Y-32610D01*
X50403Y-32591D01*
X50421Y-32575D01*
X50442Y-32563D01*
X50466Y-32555D01*
X50490Y-32553D01*
X50513Y-32554D01*
X50537Y-32561D01*
X50558Y-32572D01*
X50578Y-32587D01*
X50594Y-32605D01*
X50606Y-32627D01*
X50613Y-32650D01*
X50616Y-32674D01*
X50617Y-32677D01*
X51700Y-32677D02*
X51697Y-32701D01*
X51690Y-32724D01*
X51679Y-32746D01*
X51663Y-32765D01*
X51644Y-32780D01*
X51623Y-32792D01*
X51600Y-32799D01*
X51575Y-32801D01*
X51552Y-32799D01*
X51529Y-32792D01*
X51507Y-32781D01*
X51488Y-32766D01*
X51472Y-32747D01*
X51461Y-32726D01*
X51453Y-32702D01*
X51451Y-32678D01*
X51453Y-32655D01*
X51459Y-32631D01*
X51470Y-32610D01*
X51486Y-32591D01*
X51504Y-32575D01*
X51525Y-32563D01*
X51549Y-32555D01*
X51573Y-32553D01*
X51596Y-32554D01*
X51620Y-32561D01*
X51641Y-32572D01*
X51661Y-32587D01*
X51677Y-32605D01*
X51689Y-32627D01*
X51696Y-32650D01*
X51699Y-32674D01*
X51700Y-32677D01*
X51700Y-41535D02*
X51697Y-41559D01*
X51690Y-41582D01*
X51679Y-41604D01*
X51663Y-41623D01*
X51644Y-41638D01*
X51623Y-41650D01*
X51600Y-41657D01*
X51575Y-41659D01*
X51552Y-41657D01*
X51529Y-41650D01*
X51507Y-41639D01*
X51488Y-41624D01*
X51472Y-41605D01*
X51461Y-41584D01*
X51453Y-41560D01*
X51451Y-41536D01*
X51453Y-41513D01*
X51459Y-41489D01*
X51470Y-41468D01*
X51486Y-41449D01*
X51504Y-41433D01*
X51525Y-41421D01*
X51549Y-41413D01*
X51573Y-41411D01*
X51596Y-41412D01*
X51620Y-41419D01*
X51641Y-41430D01*
X51661Y-41445D01*
X51677Y-41463D01*
X51689Y-41485D01*
X51696Y-41508D01*
X51699Y-41532D01*
X51700Y-41535D01*
X51700Y-42126D02*
X51697Y-42150D01*
X51690Y-42173D01*
X51679Y-42195D01*
X51663Y-42214D01*
X51644Y-42229D01*
X51623Y-42241D01*
X51600Y-42248D01*
X51575Y-42250D01*
X51552Y-42248D01*
X51529Y-42241D01*
X51507Y-42230D01*
X51488Y-42215D01*
X51472Y-42196D01*
X51461Y-42175D01*
X51453Y-42151D01*
X51451Y-42127D01*
X51453Y-42104D01*
X51459Y-42080D01*
X51470Y-42059D01*
X51486Y-42040D01*
X51504Y-42024D01*
X51525Y-42012D01*
X51549Y-42004D01*
X51573Y-42002D01*
X51596Y-42003D01*
X51620Y-42010D01*
X51641Y-42021D01*
X51661Y-42036D01*
X51677Y-42054D01*
X51689Y-42076D01*
X51696Y-42099D01*
X51699Y-42123D01*
X51700Y-42126D01*
X51700Y-42716D02*
X51697Y-42740D01*
X51690Y-42763D01*
X51679Y-42785D01*
X51663Y-42804D01*
X51644Y-42819D01*
X51623Y-42831D01*
X51600Y-42838D01*
X51575Y-42840D01*
X51552Y-42838D01*
X51529Y-42831D01*
X51507Y-42820D01*
X51488Y-42805D01*
X51472Y-42786D01*
X51461Y-42765D01*
X51453Y-42741D01*
X51451Y-42717D01*
X51453Y-42694D01*
X51459Y-42670D01*
X51470Y-42649D01*
X51486Y-42630D01*
X51504Y-42614D01*
X51525Y-42602D01*
X51549Y-42594D01*
X51573Y-42592D01*
X51596Y-42593D01*
X51620Y-42600D01*
X51641Y-42611D01*
X51661Y-42626D01*
X51677Y-42644D01*
X51689Y-42666D01*
X51696Y-42689D01*
X51699Y-42713D01*
X51700Y-42716D01*
X52585Y-39665D02*
X52582Y-39689D01*
X52575Y-39712D01*
X52564Y-39734D01*
X52548Y-39753D01*
X52529Y-39768D01*
X52508Y-39780D01*
X52485Y-39787D01*
X52460Y-39789D01*
X52437Y-39787D01*
X52414Y-39780D01*
X52392Y-39769D01*
X52373Y-39754D01*
X52357Y-39735D01*
X52346Y-39714D01*
X52338Y-39690D01*
X52336Y-39666D01*
X52338Y-39643D01*
X52344Y-39619D01*
X52355Y-39598D01*
X52371Y-39579D01*
X52389Y-39563D01*
X52410Y-39551D01*
X52434Y-39543D01*
X52458Y-39541D01*
X52481Y-39542D01*
X52505Y-39549D01*
X52526Y-39560D01*
X52546Y-39575D01*
X52562Y-39593D01*
X52574Y-39615D01*
X52581Y-39638D01*
X52584Y-39662D01*
X52585Y-39665D01*
X52782Y-32677D02*
X52779Y-32701D01*
X52772Y-32724D01*
X52761Y-32746D01*
X52745Y-32765D01*
X52726Y-32780D01*
X52705Y-32792D01*
X52682Y-32799D01*
X52657Y-32801D01*
X52634Y-32799D01*
X52611Y-32792D01*
X52589Y-32781D01*
X52570Y-32766D01*
X52554Y-32747D01*
X52543Y-32726D01*
X52535Y-32702D01*
X52533Y-32678D01*
X52535Y-32655D01*
X52541Y-32631D01*
X52552Y-32610D01*
X52568Y-32591D01*
X52586Y-32575D01*
X52607Y-32563D01*
X52631Y-32555D01*
X52655Y-32553D01*
X52678Y-32554D01*
X52702Y-32561D01*
X52723Y-32572D01*
X52743Y-32587D01*
X52759Y-32605D01*
X52771Y-32627D01*
X52778Y-32650D01*
X52781Y-32674D01*
X52782Y-32677D01*
X53176Y-36319D02*
X53173Y-36343D01*
X53166Y-36366D01*
X53155Y-36388D01*
X53139Y-36407D01*
X53120Y-36422D01*
X53099Y-36434D01*
X53076Y-36441D01*
X53051Y-36443D01*
X53028Y-36441D01*
X53005Y-36434D01*
X52983Y-36423D01*
X52964Y-36408D01*
X52948Y-36389D01*
X52937Y-36368D01*
X52929Y-36344D01*
X52927Y-36320D01*
X52929Y-36297D01*
X52935Y-36273D01*
X52946Y-36252D01*
X52962Y-36233D01*
X52980Y-36217D01*
X53001Y-36205D01*
X53025Y-36197D01*
X53049Y-36195D01*
X53072Y-36196D01*
X53096Y-36203D01*
X53117Y-36214D01*
X53137Y-36229D01*
X53153Y-36247D01*
X53165Y-36269D01*
X53172Y-36292D01*
X53175Y-36316D01*
X53176Y-36319D01*
X53471Y-41535D02*
X53468Y-41559D01*
X53461Y-41582D01*
X53450Y-41604D01*
X53434Y-41623D01*
X53415Y-41638D01*
X53394Y-41650D01*
X53371Y-41657D01*
X53346Y-41659D01*
X53323Y-41657D01*
X53300Y-41650D01*
X53278Y-41639D01*
X53259Y-41624D01*
X53243Y-41605D01*
X53232Y-41584D01*
X53224Y-41560D01*
X53222Y-41536D01*
X53224Y-41513D01*
X53230Y-41489D01*
X53241Y-41468D01*
X53257Y-41449D01*
X53275Y-41433D01*
X53296Y-41421D01*
X53320Y-41413D01*
X53344Y-41411D01*
X53367Y-41412D01*
X53391Y-41419D01*
X53412Y-41430D01*
X53432Y-41445D01*
X53448Y-41463D01*
X53460Y-41485D01*
X53467Y-41508D01*
X53470Y-41532D01*
X53471Y-41535D01*
X53471Y-42126D02*
X53468Y-42150D01*
X53461Y-42173D01*
X53450Y-42195D01*
X53434Y-42214D01*
X53415Y-42229D01*
X53394Y-42241D01*
X53371Y-42248D01*
X53346Y-42250D01*
X53323Y-42248D01*
X53300Y-42241D01*
X53278Y-42230D01*
X53259Y-42215D01*
X53243Y-42196D01*
X53232Y-42175D01*
X53224Y-42151D01*
X53222Y-42127D01*
X53224Y-42104D01*
X53230Y-42080D01*
X53241Y-42059D01*
X53257Y-42040D01*
X53275Y-42024D01*
X53296Y-42012D01*
X53320Y-42004D01*
X53344Y-42002D01*
X53367Y-42003D01*
X53391Y-42010D01*
X53412Y-42021D01*
X53432Y-42036D01*
X53448Y-42054D01*
X53460Y-42076D01*
X53467Y-42099D01*
X53470Y-42123D01*
X53471Y-42126D01*
X53471Y-42716D02*
X53468Y-42740D01*
X53461Y-42763D01*
X53450Y-42785D01*
X53434Y-42804D01*
X53415Y-42819D01*
X53394Y-42831D01*
X53371Y-42838D01*
X53346Y-42840D01*
X53323Y-42838D01*
X53300Y-42831D01*
X53278Y-42820D01*
X53259Y-42805D01*
X53243Y-42786D01*
X53232Y-42765D01*
X53224Y-42741D01*
X53222Y-42717D01*
X53224Y-42694D01*
X53230Y-42670D01*
X53241Y-42649D01*
X53257Y-42630D01*
X53275Y-42614D01*
X53296Y-42602D01*
X53320Y-42594D01*
X53344Y-42592D01*
X53367Y-42593D01*
X53391Y-42600D01*
X53412Y-42611D01*
X53432Y-42626D01*
X53448Y-42644D01*
X53460Y-42666D01*
X53467Y-42689D01*
X53470Y-42713D01*
X53471Y-42716D01*
X53963Y-32677D02*
X53960Y-32701D01*
X53953Y-32724D01*
X53942Y-32746D01*
X53926Y-32765D01*
X53907Y-32780D01*
X53886Y-32792D01*
X53863Y-32799D01*
X53838Y-32801D01*
X53815Y-32799D01*
X53792Y-32792D01*
X53770Y-32781D01*
X53751Y-32766D01*
X53735Y-32747D01*
X53724Y-32726D01*
X53716Y-32702D01*
X53714Y-32678D01*
X53716Y-32655D01*
X53722Y-32631D01*
X53733Y-32610D01*
X53749Y-32591D01*
X53767Y-32575D01*
X53788Y-32563D01*
X53812Y-32555D01*
X53836Y-32553D01*
X53859Y-32554D01*
X53883Y-32561D01*
X53904Y-32572D01*
X53924Y-32587D01*
X53940Y-32605D01*
X53952Y-32627D01*
X53959Y-32650D01*
X53962Y-32674D01*
X53963Y-32677D01*
X54455Y-39173D02*
X54452Y-39197D01*
X54445Y-39220D01*
X54434Y-39242D01*
X54418Y-39261D01*
X54399Y-39276D01*
X54378Y-39288D01*
X54355Y-39295D01*
X54330Y-39297D01*
X54307Y-39295D01*
X54284Y-39288D01*
X54262Y-39277D01*
X54243Y-39262D01*
X54227Y-39243D01*
X54216Y-39222D01*
X54208Y-39198D01*
X54206Y-39174D01*
X54208Y-39151D01*
X54214Y-39127D01*
X54225Y-39106D01*
X54241Y-39087D01*
X54259Y-39071D01*
X54280Y-39059D01*
X54304Y-39051D01*
X54328Y-39049D01*
X54351Y-39050D01*
X54375Y-39057D01*
X54396Y-39068D01*
X54416Y-39083D01*
X54432Y-39101D01*
X54444Y-39123D01*
X54451Y-39146D01*
X54454Y-39170D01*
X54455Y-39173D01*
X55046Y-39173D02*
X55043Y-39197D01*
X55036Y-39220D01*
X55025Y-39242D01*
X55009Y-39261D01*
X54990Y-39276D01*
X54969Y-39288D01*
X54946Y-39295D01*
X54921Y-39297D01*
X54898Y-39295D01*
X54875Y-39288D01*
X54853Y-39277D01*
X54834Y-39262D01*
X54818Y-39243D01*
X54807Y-39222D01*
X54799Y-39198D01*
X54797Y-39174D01*
X54799Y-39151D01*
X54805Y-39127D01*
X54816Y-39106D01*
X54832Y-39087D01*
X54850Y-39071D01*
X54871Y-39059D01*
X54895Y-39051D01*
X54919Y-39049D01*
X54942Y-39050D01*
X54966Y-39057D01*
X54987Y-39068D01*
X55007Y-39083D01*
X55023Y-39101D01*
X55035Y-39123D01*
X55042Y-39146D01*
X55045Y-39170D01*
X55046Y-39173D01*
X56227Y-34448D02*
X56224Y-34472D01*
X56217Y-34495D01*
X56206Y-34517D01*
X56190Y-34536D01*
X56171Y-34551D01*
X56150Y-34563D01*
X56127Y-34570D01*
X56102Y-34572D01*
X56079Y-34570D01*
X56056Y-34563D01*
X56034Y-34552D01*
X56015Y-34537D01*
X55999Y-34518D01*
X55988Y-34497D01*
X55980Y-34473D01*
X55978Y-34449D01*
X55980Y-34426D01*
X55986Y-34402D01*
X55997Y-34381D01*
X56013Y-34362D01*
X56031Y-34346D01*
X56052Y-34334D01*
X56076Y-34326D01*
X56100Y-34324D01*
X56123Y-34325D01*
X56147Y-34332D01*
X56168Y-34343D01*
X56188Y-34358D01*
X56204Y-34376D01*
X56216Y-34398D01*
X56223Y-34421D01*
X56226Y-34445D01*
X56227Y-34448D01*
X56522Y-37893D02*
X56519Y-37917D01*
X56512Y-37940D01*
X56501Y-37962D01*
X56485Y-37981D01*
X56466Y-37996D01*
X56445Y-38008D01*
X56422Y-38015D01*
X56397Y-38017D01*
X56374Y-38015D01*
X56351Y-38008D01*
X56329Y-37997D01*
X56310Y-37982D01*
X56294Y-37963D01*
X56283Y-37942D01*
X56275Y-37918D01*
X56273Y-37894D01*
X56275Y-37871D01*
X56281Y-37847D01*
X56292Y-37826D01*
X56308Y-37807D01*
X56326Y-37791D01*
X56347Y-37779D01*
X56371Y-37771D01*
X56395Y-37769D01*
X56418Y-37770D01*
X56442Y-37777D01*
X56463Y-37788D01*
X56483Y-37803D01*
X56499Y-37821D01*
X56511Y-37843D01*
X56518Y-37866D01*
X56521Y-37890D01*
X56522Y-37893D01*
X57703Y-31988D02*
X57700Y-32012D01*
X57693Y-32035D01*
X57682Y-32057D01*
X57666Y-32076D01*
X57647Y-32091D01*
X57626Y-32103D01*
X57603Y-32110D01*
X57578Y-32112D01*
X57555Y-32110D01*
X57532Y-32103D01*
X57510Y-32092D01*
X57491Y-32077D01*
X57475Y-32058D01*
X57464Y-32037D01*
X57456Y-32013D01*
X57454Y-31989D01*
X57456Y-31966D01*
X57462Y-31942D01*
X57473Y-31921D01*
X57489Y-31902D01*
X57507Y-31886D01*
X57528Y-31874D01*
X57552Y-31866D01*
X57576Y-31864D01*
X57599Y-31865D01*
X57623Y-31872D01*
X57644Y-31883D01*
X57664Y-31898D01*
X57680Y-31916D01*
X57692Y-31938D01*
X57699Y-31961D01*
X57702Y-31985D01*
X57703Y-31988D01*
X57900Y-40354D02*
X57897Y-40378D01*
X57890Y-40401D01*
X57879Y-40423D01*
X57863Y-40442D01*
X57844Y-40457D01*
X57823Y-40469D01*
X57800Y-40476D01*
X57775Y-40478D01*
X57752Y-40476D01*
X57729Y-40469D01*
X57707Y-40458D01*
X57688Y-40443D01*
X57672Y-40424D01*
X57661Y-40403D01*
X57653Y-40379D01*
X57651Y-40355D01*
X57653Y-40332D01*
X57659Y-40308D01*
X57670Y-40287D01*
X57686Y-40268D01*
X57704Y-40252D01*
X57725Y-40240D01*
X57749Y-40232D01*
X57773Y-40230D01*
X57796Y-40231D01*
X57820Y-40238D01*
X57841Y-40249D01*
X57861Y-40264D01*
X57877Y-40282D01*
X57889Y-40304D01*
X57896Y-40327D01*
X57899Y-40351D01*
X57900Y-40354D01*
X58097Y-36023D02*
X58094Y-36047D01*
X58087Y-36070D01*
X58076Y-36092D01*
X58060Y-36111D01*
X58041Y-36126D01*
X58020Y-36138D01*
X57997Y-36145D01*
X57972Y-36147D01*
X57949Y-36145D01*
X57926Y-36138D01*
X57904Y-36127D01*
X57885Y-36112D01*
X57869Y-36093D01*
X57858Y-36072D01*
X57850Y-36048D01*
X57848Y-36024D01*
X57850Y-36001D01*
X57856Y-35977D01*
X57867Y-35956D01*
X57883Y-35937D01*
X57901Y-35921D01*
X57922Y-35909D01*
X57946Y-35901D01*
X57970Y-35899D01*
X57993Y-35900D01*
X58017Y-35907D01*
X58038Y-35918D01*
X58058Y-35933D01*
X58074Y-35951D01*
X58086Y-35973D01*
X58093Y-35996D01*
X58096Y-36020D01*
X58097Y-36023D01*
X58196Y-39763D02*
X58193Y-39787D01*
X58186Y-39810D01*
X58175Y-39832D01*
X58159Y-39851D01*
X58140Y-39866D01*
X58119Y-39878D01*
X58096Y-39885D01*
X58071Y-39887D01*
X58048Y-39885D01*
X58025Y-39878D01*
X58003Y-39867D01*
X57984Y-39852D01*
X57968Y-39833D01*
X57957Y-39812D01*
X57949Y-39788D01*
X57947Y-39764D01*
X57949Y-39741D01*
X57955Y-39717D01*
X57966Y-39696D01*
X57982Y-39677D01*
X58000Y-39661D01*
X58021Y-39649D01*
X58045Y-39641D01*
X58069Y-39639D01*
X58092Y-39640D01*
X58116Y-39647D01*
X58137Y-39658D01*
X58157Y-39673D01*
X58173Y-39691D01*
X58185Y-39713D01*
X58192Y-39736D01*
X58195Y-39760D01*
X58196Y-39763D01*
X58786Y-37106D02*
X58783Y-37130D01*
X58776Y-37153D01*
X58765Y-37175D01*
X58749Y-37194D01*
X58730Y-37209D01*
X58709Y-37221D01*
X58686Y-37228D01*
X58661Y-37230D01*
X58638Y-37228D01*
X58615Y-37221D01*
X58593Y-37210D01*
X58574Y-37195D01*
X58558Y-37176D01*
X58547Y-37155D01*
X58539Y-37131D01*
X58537Y-37107D01*
X58539Y-37084D01*
X58545Y-37060D01*
X58556Y-37039D01*
X58572Y-37020D01*
X58590Y-37004D01*
X58611Y-36992D01*
X58635Y-36984D01*
X58659Y-36982D01*
X58682Y-36983D01*
X58706Y-36990D01*
X58727Y-37001D01*
X58747Y-37016D01*
X58763Y-37034D01*
X58775Y-37056D01*
X58782Y-37079D01*
X58785Y-37103D01*
X58786Y-37106D01*
X58885Y-33366D02*
X58882Y-33390D01*
X58875Y-33413D01*
X58864Y-33435D01*
X58848Y-33454D01*
X58829Y-33469D01*
X58808Y-33481D01*
X58785Y-33488D01*
X58760Y-33490D01*
X58737Y-33488D01*
X58714Y-33481D01*
X58692Y-33470D01*
X58673Y-33455D01*
X58657Y-33436D01*
X58646Y-33415D01*
X58638Y-33391D01*
X58636Y-33367D01*
X58638Y-33344D01*
X58644Y-33320D01*
X58655Y-33299D01*
X58671Y-33280D01*
X58689Y-33264D01*
X58710Y-33252D01*
X58734Y-33244D01*
X58758Y-33242D01*
X58781Y-33243D01*
X58805Y-33250D01*
X58826Y-33261D01*
X58846Y-33276D01*
X58862Y-33294D01*
X58874Y-33316D01*
X58881Y-33339D01*
X58884Y-33363D01*
X58885Y-33366D01*
X58983Y-37598D02*
X58980Y-37622D01*
X58973Y-37645D01*
X58962Y-37667D01*
X58946Y-37686D01*
X58927Y-37701D01*
X58906Y-37713D01*
X58883Y-37720D01*
X58858Y-37722D01*
X58835Y-37720D01*
X58812Y-37713D01*
X58790Y-37702D01*
X58771Y-37687D01*
X58755Y-37668D01*
X58744Y-37647D01*
X58736Y-37623D01*
X58734Y-37599D01*
X58736Y-37576D01*
X58742Y-37552D01*
X58753Y-37531D01*
X58769Y-37512D01*
X58787Y-37496D01*
X58808Y-37484D01*
X58832Y-37476D01*
X58856Y-37474D01*
X58879Y-37475D01*
X58903Y-37482D01*
X58924Y-37493D01*
X58944Y-37508D01*
X58960Y-37526D01*
X58972Y-37548D01*
X58979Y-37571D01*
X58982Y-37595D01*
X58983Y-37598D01*
X60066Y-34842D02*
X60063Y-34866D01*
X60056Y-34889D01*
X60045Y-34911D01*
X60029Y-34930D01*
X60010Y-34945D01*
X59989Y-34957D01*
X59966Y-34964D01*
X59941Y-34966D01*
X59918Y-34964D01*
X59895Y-34957D01*
X59873Y-34946D01*
X59854Y-34931D01*
X59838Y-34912D01*
X59827Y-34891D01*
X59819Y-34867D01*
X59817Y-34843D01*
X59819Y-34820D01*
X59825Y-34796D01*
X59836Y-34775D01*
X59852Y-34756D01*
X59870Y-34740D01*
X59891Y-34728D01*
X59915Y-34720D01*
X59939Y-34718D01*
X59962Y-34719D01*
X59986Y-34726D01*
X60007Y-34737D01*
X60027Y-34752D01*
X60043Y-34770D01*
X60055Y-34792D01*
X60062Y-34815D01*
X60065Y-34839D01*
X60066Y-34842D01*
X51109Y-30645D02*
X51109Y-30965D01*
X51269Y-30805D02*
X50949Y-30805D01*
X52109Y-30645D02*
X52109Y-30965D01*
X52269Y-30805D02*
X51949Y-30805D01*
X53109Y-30645D02*
X53109Y-30965D01*
X53269Y-30805D02*
X52949Y-30805D01*
X54109Y-30645D02*
X54109Y-30965D01*
X54269Y-30805D02*
X53949Y-30805D01*
X55109Y-30645D02*
X55109Y-30965D01*
X55269Y-30805D02*
X54949Y-30805D01*
X56109Y-30645D02*
X56109Y-30965D01*
X56269Y-30805D02*
X55949Y-30805D01*
X57109Y-30645D02*
X57109Y-30965D01*
X57269Y-30805D02*
X56949Y-30805D01*
X58109Y-30645D02*
X58109Y-30965D01*
X58269Y-30805D02*
X57949Y-30805D01*
X59109Y-30645D02*
X59109Y-30965D01*
X59269Y-30805D02*
X58949Y-30805D01*
X60109Y-30645D02*
X60109Y-30965D01*
X60269Y-30805D02*
X59949Y-30805D01*
X49350Y-31102D02*
X49338Y-31224D01*
X49302Y-31342D01*
X49244Y-31450D01*
X49167Y-31545D01*
X49072Y-31624D01*
X48964Y-31682D01*
X48846Y-31719D01*
X48724Y-31731D01*
X48602Y-31720D01*
X48484Y-31686D01*
X48376Y-31629D01*
X48280Y-31552D01*
X48201Y-31457D01*
X48141Y-31350D01*
X48104Y-31232D01*
X48091Y-31110D01*
X48101Y-30989D01*
X48135Y-30871D01*
X48191Y-30761D01*
X48267Y-30665D01*
X48361Y-30585D01*
X48468Y-30525D01*
X48585Y-30487D01*
X48707Y-30473D01*
X48829Y-30482D01*
X48947Y-30515D01*
X49057Y-30571D01*
X49154Y-30646D01*
X49234Y-30739D01*
X49295Y-30846D01*
X49334Y-30963D01*
X49349Y-31085D01*
X49350Y-31102D01*
X48090Y-30472D02*
X49350Y-31732D01*
X49350Y-30472D02*
X48090Y-31732D01*
X49350Y-41831D02*
X49338Y-41953D01*
X49302Y-42071D01*
X49244Y-42179D01*
X49167Y-42274D01*
X49072Y-42353D01*
X48964Y-42411D01*
X48846Y-42448D01*
X48724Y-42460D01*
X48602Y-42449D01*
X48484Y-42415D01*
X48376Y-42358D01*
X48280Y-42281D01*
X48201Y-42186D01*
X48141Y-42079D01*
X48104Y-41961D01*
X48091Y-41839D01*
X48101Y-41718D01*
X48135Y-41600D01*
X48191Y-41490D01*
X48267Y-41394D01*
X48361Y-41314D01*
X48468Y-41254D01*
X48585Y-41216D01*
X48707Y-41202D01*
X48829Y-41211D01*
X48947Y-41244D01*
X49057Y-41300D01*
X49154Y-41375D01*
X49234Y-41468D01*
X49295Y-41575D01*
X49334Y-41692D01*
X49349Y-41814D01*
X49350Y-41831D01*
X48090Y-41201D02*
X49350Y-42461D01*
X49350Y-41201D02*
X48090Y-42461D01*
X62933Y-31102D02*
X62921Y-31224D01*
X62885Y-31342D01*
X62827Y-31450D01*
X62750Y-31545D01*
X62655Y-31624D01*
X62547Y-31682D01*
X62429Y-31719D01*
X62307Y-31731D01*
X62185Y-31720D01*
X62067Y-31686D01*
X61959Y-31629D01*
X61863Y-31552D01*
X61784Y-31457D01*
X61724Y-31350D01*
X61687Y-31232D01*
X61674Y-31110D01*
X61684Y-30989D01*
X61718Y-30871D01*
X61774Y-30761D01*
X61850Y-30665D01*
X61944Y-30585D01*
X62051Y-30525D01*
X62168Y-30487D01*
X62290Y-30473D01*
X62412Y-30482D01*
X62530Y-30515D01*
X62640Y-30571D01*
X62737Y-30646D01*
X62817Y-30739D01*
X62878Y-30846D01*
X62917Y-30963D01*
X62932Y-31085D01*
X62933Y-31102D01*
X61673Y-30472D02*
X62933Y-31732D01*
X62933Y-30472D02*
X61673Y-31732D01*
X62933Y-41831D02*
X62921Y-41953D01*
X62885Y-42071D01*
X62827Y-42179D01*
X62750Y-42274D01*
X62655Y-42353D01*
X62547Y-42411D01*
X62429Y-42448D01*
X62307Y-42460D01*
X62185Y-42449D01*
X62067Y-42415D01*
X61959Y-42358D01*
X61863Y-42281D01*
X61784Y-42186D01*
X61724Y-42079D01*
X61687Y-41961D01*
X61674Y-41839D01*
X61684Y-41718D01*
X61718Y-41600D01*
X61774Y-41490D01*
X61850Y-41394D01*
X61944Y-41314D01*
X62051Y-41254D01*
X62168Y-41216D01*
X62290Y-41202D01*
X62412Y-41211D01*
X62530Y-41244D01*
X62640Y-41300D01*
X62737Y-41375D01*
X62817Y-41468D01*
X62878Y-41575D01*
X62917Y-41692D01*
X62932Y-41814D01*
X62933Y-41831D01*
X61673Y-41201D02*
X62933Y-42461D01*
X62933Y-41201D02*
X61673Y-42461D01*
G54D12*
X47656Y-48877D02*
X47656Y-48077D01*
X47847Y-48077D01*
X47961Y-48115D01*
X48037Y-48191D01*
X48076Y-48267D01*
X48114Y-48420D01*
X48114Y-48534D01*
X48076Y-48686D01*
X48037Y-48763D01*
X47961Y-48839D01*
X47847Y-48877D01*
X47656Y-48877D01*
X48456Y-48877D02*
X48456Y-48343D01*
X48456Y-48496D02*
X48495Y-48420D01*
X48533Y-48382D01*
X48609Y-48343D01*
X48685Y-48343D01*
X48951Y-48877D02*
X48951Y-48343D01*
X48951Y-48077D02*
X48913Y-48115D01*
X48951Y-48153D01*
X48990Y-48115D01*
X48951Y-48077D01*
X48951Y-48153D01*
X49447Y-48877D02*
X49371Y-48839D01*
X49332Y-48763D01*
X49332Y-48077D01*
X49866Y-48877D02*
X49790Y-48839D01*
X49751Y-48763D01*
X49751Y-48077D01*
X50780Y-48877D02*
X50780Y-48077D01*
X51047Y-48648D01*
X51314Y-48077D01*
X51314Y-48877D01*
X52037Y-48877D02*
X52037Y-48458D01*
X51999Y-48382D01*
X51923Y-48343D01*
X51771Y-48343D01*
X51694Y-48382D01*
X52037Y-48839D02*
X51961Y-48877D01*
X51771Y-48877D01*
X51694Y-48839D01*
X51656Y-48763D01*
X51656Y-48686D01*
X51694Y-48610D01*
X51771Y-48572D01*
X51961Y-48572D01*
X52037Y-48534D01*
X52418Y-48343D02*
X52418Y-49143D01*
X52418Y-48382D02*
X52495Y-48343D01*
X52647Y-48343D01*
X52723Y-48382D01*
X52761Y-48420D01*
X52799Y-48496D01*
X52799Y-48724D01*
X52761Y-48801D01*
X52723Y-48839D01*
X52647Y-48877D01*
X52495Y-48877D01*
X52418Y-48839D01*
X53142Y-48801D02*
X53181Y-48839D01*
X53142Y-48877D01*
X53104Y-48839D01*
X53142Y-48801D01*
X53142Y-48877D01*
X53142Y-48382D02*
X53181Y-48420D01*
X53142Y-48458D01*
X53104Y-48420D01*
X53142Y-48382D01*
X53142Y-48458D01*
X47069Y-50135D02*
X47265Y-50331D01*
X47265Y-50135D02*
X47069Y-50331D01*
X47809Y-49757D02*
X47885Y-49757D01*
X47961Y-49795D01*
X47999Y-49833D01*
X48037Y-49909D01*
X48076Y-50062D01*
X48076Y-50252D01*
X48037Y-50404D01*
X47999Y-50481D01*
X47961Y-50519D01*
X47885Y-50557D01*
X47809Y-50557D01*
X47733Y-50519D01*
X47695Y-50481D01*
X47656Y-50404D01*
X47618Y-50252D01*
X47618Y-50062D01*
X47656Y-49909D01*
X47695Y-49833D01*
X47733Y-49795D01*
X47809Y-49757D01*
X48418Y-50481D02*
X48457Y-50519D01*
X48418Y-50557D01*
X48380Y-50519D01*
X48418Y-50481D01*
X48418Y-50557D01*
X48952Y-49757D02*
X49028Y-49757D01*
X49104Y-49795D01*
X49142Y-49833D01*
X49180Y-49909D01*
X49219Y-50062D01*
X49219Y-50252D01*
X49180Y-50404D01*
X49142Y-50481D01*
X49104Y-50519D01*
X49028Y-50557D01*
X48952Y-50557D01*
X48876Y-50519D01*
X48838Y-50481D01*
X48799Y-50404D01*
X48761Y-50252D01*
X48761Y-50062D01*
X48799Y-49909D01*
X48838Y-49833D01*
X48876Y-49795D01*
X48952Y-49757D01*
X49523Y-49833D02*
X49561Y-49795D01*
X49638Y-49757D01*
X49828Y-49757D01*
X49904Y-49795D01*
X49942Y-49833D01*
X49981Y-49909D01*
X49981Y-49985D01*
X49942Y-50100D01*
X49485Y-50557D01*
X49981Y-50557D01*
X50476Y-49757D02*
X50552Y-49757D01*
X50628Y-49795D01*
X50666Y-49833D01*
X50704Y-49909D01*
X50743Y-50062D01*
X50743Y-50252D01*
X50704Y-50404D01*
X50666Y-50481D01*
X50628Y-50519D01*
X50552Y-50557D01*
X50476Y-50557D01*
X50400Y-50519D01*
X50362Y-50481D01*
X50323Y-50404D01*
X50285Y-50252D01*
X50285Y-50062D01*
X50323Y-49909D01*
X50362Y-49833D01*
X50400Y-49795D01*
X50476Y-49757D01*
X51047Y-49757D02*
X51047Y-49909D01*
X51352Y-49757D02*
X51352Y-49909D01*
X52877Y-49719D02*
X52191Y-50747D01*
X53906Y-49757D02*
X53982Y-49757D01*
X54058Y-49795D01*
X54096Y-49833D01*
X54134Y-49909D01*
X54173Y-50062D01*
X54173Y-50252D01*
X54134Y-50404D01*
X54096Y-50481D01*
X54058Y-50519D01*
X53982Y-50557D01*
X53906Y-50557D01*
X53830Y-50519D01*
X53792Y-50481D01*
X53753Y-50404D01*
X53715Y-50252D01*
X53715Y-50062D01*
X53753Y-49909D01*
X53792Y-49833D01*
X53830Y-49795D01*
X53906Y-49757D01*
X54515Y-50481D02*
X54554Y-50519D01*
X54515Y-50557D01*
X54477Y-50519D01*
X54515Y-50481D01*
X54515Y-50557D01*
X55277Y-49757D02*
X54896Y-49757D01*
X54858Y-50138D01*
X54896Y-50100D01*
X54973Y-50062D01*
X55163Y-50062D01*
X55239Y-50100D01*
X55277Y-50138D01*
X55316Y-50214D01*
X55316Y-50404D01*
X55277Y-50481D01*
X55239Y-50519D01*
X55163Y-50557D01*
X54973Y-50557D01*
X54896Y-50519D01*
X54858Y-50481D01*
X55811Y-49757D02*
X55887Y-49757D01*
X55963Y-49795D01*
X56001Y-49833D01*
X56039Y-49909D01*
X56078Y-50062D01*
X56078Y-50252D01*
X56039Y-50404D01*
X56001Y-50481D01*
X55963Y-50519D01*
X55887Y-50557D01*
X55811Y-50557D01*
X55735Y-50519D01*
X55697Y-50481D01*
X55658Y-50404D01*
X55620Y-50252D01*
X55620Y-50062D01*
X55658Y-49909D01*
X55697Y-49833D01*
X55735Y-49795D01*
X55811Y-49757D01*
X56420Y-50557D02*
X56420Y-50023D01*
X56420Y-50100D02*
X56459Y-50062D01*
X56535Y-50023D01*
X56649Y-50023D01*
X56725Y-50062D01*
X56763Y-50138D01*
X56763Y-50557D01*
X56763Y-50138D02*
X56801Y-50062D01*
X56878Y-50023D01*
X56992Y-50023D01*
X57068Y-50062D01*
X57106Y-50138D01*
X57106Y-50557D01*
X57487Y-50557D02*
X57487Y-50023D01*
X57487Y-50100D02*
X57526Y-50062D01*
X57602Y-50023D01*
X57716Y-50023D01*
X57792Y-50062D01*
X57830Y-50138D01*
X57830Y-50557D01*
X57830Y-50138D02*
X57868Y-50062D01*
X57945Y-50023D01*
X58059Y-50023D01*
X58135Y-50062D01*
X58173Y-50138D01*
X58173Y-50557D01*
X59393Y-50862D02*
X59355Y-50823D01*
X59279Y-50709D01*
X59241Y-50633D01*
X59203Y-50519D01*
X59164Y-50328D01*
X59164Y-50176D01*
X59203Y-49985D01*
X59241Y-49871D01*
X59279Y-49795D01*
X59355Y-49681D01*
X59393Y-49643D01*
X59659Y-49833D02*
X59697Y-49795D01*
X59774Y-49757D01*
X59964Y-49757D01*
X60040Y-49795D01*
X60078Y-49833D01*
X60117Y-49909D01*
X60117Y-49985D01*
X60078Y-50100D01*
X59621Y-50557D01*
X60117Y-50557D01*
X61069Y-50557D02*
X61069Y-49757D01*
X61412Y-50557D02*
X61412Y-50138D01*
X61374Y-50062D01*
X61298Y-50023D01*
X61184Y-50023D01*
X61108Y-50062D01*
X61069Y-50100D01*
X61908Y-50557D02*
X61832Y-50519D01*
X61793Y-50481D01*
X61755Y-50404D01*
X61755Y-50176D01*
X61793Y-50100D01*
X61832Y-50062D01*
X61908Y-50023D01*
X62022Y-50023D01*
X62098Y-50062D01*
X62136Y-50100D01*
X62174Y-50176D01*
X62174Y-50404D01*
X62136Y-50481D01*
X62098Y-50519D01*
X62022Y-50557D01*
X61908Y-50557D01*
X62632Y-50557D02*
X62556Y-50519D01*
X62517Y-50443D01*
X62517Y-49757D01*
X63241Y-50519D02*
X63165Y-50557D01*
X63013Y-50557D01*
X62936Y-50519D01*
X62898Y-50443D01*
X62898Y-50138D01*
X62936Y-50062D01*
X63013Y-50023D01*
X63165Y-50023D01*
X63241Y-50062D01*
X63279Y-50138D01*
X63279Y-50214D01*
X62898Y-50290D01*
X63584Y-50519D02*
X63661Y-50557D01*
X63813Y-50557D01*
X63889Y-50519D01*
X63927Y-50443D01*
X63927Y-50404D01*
X63889Y-50328D01*
X63813Y-50290D01*
X63699Y-50290D01*
X63622Y-50252D01*
X63584Y-50176D01*
X63584Y-50138D01*
X63622Y-50062D01*
X63699Y-50023D01*
X63813Y-50023D01*
X63889Y-50062D01*
X64194Y-50862D02*
X64232Y-50823D01*
X64309Y-50709D01*
X64347Y-50633D01*
X64385Y-50519D01*
X64423Y-50328D01*
X64423Y-50176D01*
X64385Y-49985D01*
X64347Y-49871D01*
X64309Y-49795D01*
X64232Y-49681D01*
X64194Y-49643D01*
G54D10*
X47266Y-51289D02*
X47263Y-51313D01*
X47256Y-51336D01*
X47245Y-51358D01*
X47229Y-51377D01*
X47210Y-51392D01*
X47189Y-51404D01*
X47166Y-51411D01*
X47141Y-51413D01*
X47118Y-51411D01*
X47095Y-51404D01*
X47073Y-51393D01*
X47054Y-51378D01*
X47038Y-51359D01*
X47027Y-51338D01*
X47019Y-51314D01*
X47017Y-51290D01*
X47019Y-51267D01*
X47025Y-51243D01*
X47036Y-51222D01*
X47052Y-51203D01*
X47070Y-51187D01*
X47091Y-51175D01*
X47115Y-51167D01*
X47139Y-51165D01*
X47162Y-51166D01*
X47186Y-51173D01*
X47207Y-51184D01*
X47227Y-51199D01*
X47243Y-51217D01*
X47255Y-51239D01*
X47262Y-51262D01*
X47265Y-51286D01*
X47266Y-51289D01*
G54D12*
X47809Y-50813D02*
X47885Y-50813D01*
X47961Y-50851D01*
X47999Y-50889D01*
X48037Y-50965D01*
X48076Y-51118D01*
X48076Y-51308D01*
X48037Y-51460D01*
X47999Y-51537D01*
X47961Y-51575D01*
X47885Y-51613D01*
X47809Y-51613D01*
X47733Y-51575D01*
X47695Y-51537D01*
X47656Y-51460D01*
X47618Y-51308D01*
X47618Y-51118D01*
X47656Y-50965D01*
X47695Y-50889D01*
X47733Y-50851D01*
X47809Y-50813D01*
X48418Y-51537D02*
X48457Y-51575D01*
X48418Y-51613D01*
X48380Y-51575D01*
X48418Y-51537D01*
X48418Y-51613D01*
X48952Y-50813D02*
X49028Y-50813D01*
X49104Y-50851D01*
X49142Y-50889D01*
X49180Y-50965D01*
X49219Y-51118D01*
X49219Y-51308D01*
X49180Y-51460D01*
X49142Y-51537D01*
X49104Y-51575D01*
X49028Y-51613D01*
X48952Y-51613D01*
X48876Y-51575D01*
X48838Y-51537D01*
X48799Y-51460D01*
X48761Y-51308D01*
X48761Y-51118D01*
X48799Y-50965D01*
X48838Y-50889D01*
X48876Y-50851D01*
X48952Y-50813D01*
X49523Y-50889D02*
X49561Y-50851D01*
X49638Y-50813D01*
X49828Y-50813D01*
X49904Y-50851D01*
X49942Y-50889D01*
X49981Y-50965D01*
X49981Y-51041D01*
X49942Y-51156D01*
X49485Y-51613D01*
X49981Y-51613D01*
X50704Y-50813D02*
X50323Y-50813D01*
X50285Y-51194D01*
X50323Y-51156D01*
X50400Y-51118D01*
X50590Y-51118D01*
X50666Y-51156D01*
X50704Y-51194D01*
X50743Y-51270D01*
X50743Y-51460D01*
X50704Y-51537D01*
X50666Y-51575D01*
X50590Y-51613D01*
X50400Y-51613D01*
X50323Y-51575D01*
X50285Y-51537D01*
X51047Y-50813D02*
X51047Y-50965D01*
X51352Y-50813D02*
X51352Y-50965D01*
X52877Y-50775D02*
X52191Y-51803D01*
X53906Y-50813D02*
X53982Y-50813D01*
X54058Y-50851D01*
X54096Y-50889D01*
X54134Y-50965D01*
X54173Y-51118D01*
X54173Y-51308D01*
X54134Y-51460D01*
X54096Y-51537D01*
X54058Y-51575D01*
X53982Y-51613D01*
X53906Y-51613D01*
X53830Y-51575D01*
X53792Y-51537D01*
X53753Y-51460D01*
X53715Y-51308D01*
X53715Y-51118D01*
X53753Y-50965D01*
X53792Y-50889D01*
X53830Y-50851D01*
X53906Y-50813D01*
X54515Y-51537D02*
X54554Y-51575D01*
X54515Y-51613D01*
X54477Y-51575D01*
X54515Y-51537D01*
X54515Y-51613D01*
X55239Y-50813D02*
X55087Y-50813D01*
X55011Y-50851D01*
X54973Y-50889D01*
X54896Y-51003D01*
X54858Y-51156D01*
X54858Y-51460D01*
X54896Y-51537D01*
X54935Y-51575D01*
X55011Y-51613D01*
X55163Y-51613D01*
X55239Y-51575D01*
X55277Y-51537D01*
X55316Y-51460D01*
X55316Y-51270D01*
X55277Y-51194D01*
X55239Y-51156D01*
X55163Y-51118D01*
X55011Y-51118D01*
X54935Y-51156D01*
X54896Y-51194D01*
X54858Y-51270D01*
X56001Y-51079D02*
X56001Y-51613D01*
X55811Y-50775D02*
X55620Y-51346D01*
X56116Y-51346D01*
X56420Y-51613D02*
X56420Y-51079D01*
X56420Y-51156D02*
X56459Y-51118D01*
X56535Y-51079D01*
X56649Y-51079D01*
X56725Y-51118D01*
X56763Y-51194D01*
X56763Y-51613D01*
X56763Y-51194D02*
X56801Y-51118D01*
X56878Y-51079D01*
X56992Y-51079D01*
X57068Y-51118D01*
X57106Y-51194D01*
X57106Y-51613D01*
X57487Y-51613D02*
X57487Y-51079D01*
X57487Y-51156D02*
X57526Y-51118D01*
X57602Y-51079D01*
X57716Y-51079D01*
X57792Y-51118D01*
X57830Y-51194D01*
X57830Y-51613D01*
X57830Y-51194D02*
X57868Y-51118D01*
X57945Y-51079D01*
X58059Y-51079D01*
X58135Y-51118D01*
X58173Y-51194D01*
X58173Y-51613D01*
X59393Y-51918D02*
X59355Y-51879D01*
X59279Y-51765D01*
X59241Y-51689D01*
X59203Y-51575D01*
X59164Y-51384D01*
X59164Y-51232D01*
X59203Y-51041D01*
X59241Y-50927D01*
X59279Y-50851D01*
X59355Y-50737D01*
X59393Y-50699D01*
X59659Y-50889D02*
X59697Y-50851D01*
X59774Y-50813D01*
X59964Y-50813D01*
X60040Y-50851D01*
X60078Y-50889D01*
X60117Y-50965D01*
X60117Y-51041D01*
X60078Y-51156D01*
X59621Y-51613D01*
X60117Y-51613D01*
X60802Y-51079D02*
X60802Y-51613D01*
X60612Y-50775D02*
X60421Y-51346D01*
X60917Y-51346D01*
X61831Y-51613D02*
X61831Y-50813D01*
X62174Y-51613D02*
X62174Y-51194D01*
X62136Y-51118D01*
X62060Y-51079D01*
X61946Y-51079D01*
X61870Y-51118D01*
X61831Y-51156D01*
X62670Y-51613D02*
X62594Y-51575D01*
X62555Y-51537D01*
X62517Y-51460D01*
X62517Y-51232D01*
X62555Y-51156D01*
X62594Y-51118D01*
X62670Y-51079D01*
X62784Y-51079D01*
X62860Y-51118D01*
X62898Y-51156D01*
X62936Y-51232D01*
X62936Y-51460D01*
X62898Y-51537D01*
X62860Y-51575D01*
X62784Y-51613D01*
X62670Y-51613D01*
X63394Y-51613D02*
X63318Y-51575D01*
X63279Y-51499D01*
X63279Y-50813D01*
X64003Y-51575D02*
X63927Y-51613D01*
X63775Y-51613D01*
X63698Y-51575D01*
X63660Y-51499D01*
X63660Y-51194D01*
X63698Y-51118D01*
X63775Y-51079D01*
X63927Y-51079D01*
X64003Y-51118D01*
X64041Y-51194D01*
X64041Y-51270D01*
X63660Y-51346D01*
X64346Y-51575D02*
X64423Y-51613D01*
X64575Y-51613D01*
X64651Y-51575D01*
X64689Y-51499D01*
X64689Y-51460D01*
X64651Y-51384D01*
X64575Y-51346D01*
X64461Y-51346D01*
X64384Y-51308D01*
X64346Y-51232D01*
X64346Y-51194D01*
X64384Y-51118D01*
X64461Y-51079D01*
X64575Y-51079D01*
X64651Y-51118D01*
X64956Y-51918D02*
X64994Y-51879D01*
X65071Y-51765D01*
X65109Y-51689D01*
X65147Y-51575D01*
X65185Y-51384D01*
X65185Y-51232D01*
X65147Y-51041D01*
X65109Y-50927D01*
X65071Y-50851D01*
X64994Y-50737D01*
X64956Y-50699D01*
X47106Y-52185D02*
X47106Y-52505D01*
X47266Y-52345D02*
X46946Y-52345D01*
X47809Y-51869D02*
X47885Y-51869D01*
X47961Y-51907D01*
X47999Y-51945D01*
X48037Y-52021D01*
X48076Y-52174D01*
X48076Y-52364D01*
X48037Y-52516D01*
X47999Y-52593D01*
X47961Y-52631D01*
X47885Y-52669D01*
X47809Y-52669D01*
X47733Y-52631D01*
X47695Y-52593D01*
X47656Y-52516D01*
X47618Y-52364D01*
X47618Y-52174D01*
X47656Y-52021D01*
X47695Y-51945D01*
X47733Y-51907D01*
X47809Y-51869D01*
X48418Y-52593D02*
X48457Y-52631D01*
X48418Y-52669D01*
X48380Y-52631D01*
X48418Y-52593D01*
X48418Y-52669D01*
X48952Y-51869D02*
X49028Y-51869D01*
X49104Y-51907D01*
X49142Y-51945D01*
X49180Y-52021D01*
X49219Y-52174D01*
X49219Y-52364D01*
X49180Y-52516D01*
X49142Y-52593D01*
X49104Y-52631D01*
X49028Y-52669D01*
X48952Y-52669D01*
X48876Y-52631D01*
X48838Y-52593D01*
X48799Y-52516D01*
X48761Y-52364D01*
X48761Y-52174D01*
X48799Y-52021D01*
X48838Y-51945D01*
X48876Y-51907D01*
X48952Y-51869D01*
X49485Y-51869D02*
X49981Y-51869D01*
X49714Y-52174D01*
X49828Y-52174D01*
X49904Y-52212D01*
X49942Y-52250D01*
X49981Y-52326D01*
X49981Y-52516D01*
X49942Y-52593D01*
X49904Y-52631D01*
X49828Y-52669D01*
X49600Y-52669D01*
X49523Y-52631D01*
X49485Y-52593D01*
X50285Y-51945D02*
X50323Y-51907D01*
X50400Y-51869D01*
X50590Y-51869D01*
X50666Y-51907D01*
X50704Y-51945D01*
X50743Y-52021D01*
X50743Y-52097D01*
X50704Y-52212D01*
X50247Y-52669D01*
X50743Y-52669D01*
X51047Y-51869D02*
X51047Y-52021D01*
X51352Y-51869D02*
X51352Y-52021D01*
X52877Y-51831D02*
X52191Y-52859D01*
X53906Y-51869D02*
X53982Y-51869D01*
X54058Y-51907D01*
X54096Y-51945D01*
X54134Y-52021D01*
X54173Y-52174D01*
X54173Y-52364D01*
X54134Y-52516D01*
X54096Y-52593D01*
X54058Y-52631D01*
X53982Y-52669D01*
X53906Y-52669D01*
X53830Y-52631D01*
X53792Y-52593D01*
X53753Y-52516D01*
X53715Y-52364D01*
X53715Y-52174D01*
X53753Y-52021D01*
X53792Y-51945D01*
X53830Y-51907D01*
X53906Y-51869D01*
X54515Y-52593D02*
X54554Y-52631D01*
X54515Y-52669D01*
X54477Y-52631D01*
X54515Y-52593D01*
X54515Y-52669D01*
X55011Y-52212D02*
X54935Y-52174D01*
X54896Y-52135D01*
X54858Y-52059D01*
X54858Y-52021D01*
X54896Y-51945D01*
X54935Y-51907D01*
X55011Y-51869D01*
X55163Y-51869D01*
X55239Y-51907D01*
X55277Y-51945D01*
X55316Y-52021D01*
X55316Y-52059D01*
X55277Y-52135D01*
X55239Y-52174D01*
X55163Y-52212D01*
X55011Y-52212D01*
X54935Y-52250D01*
X54896Y-52288D01*
X54858Y-52364D01*
X54858Y-52516D01*
X54896Y-52593D01*
X54935Y-52631D01*
X55011Y-52669D01*
X55163Y-52669D01*
X55239Y-52631D01*
X55277Y-52593D01*
X55316Y-52516D01*
X55316Y-52364D01*
X55277Y-52288D01*
X55239Y-52250D01*
X55163Y-52212D01*
X56078Y-52669D02*
X55620Y-52669D01*
X55849Y-52669D02*
X55849Y-51869D01*
X55773Y-51983D01*
X55697Y-52059D01*
X55620Y-52097D01*
X56420Y-52669D02*
X56420Y-52135D01*
X56420Y-52212D02*
X56459Y-52174D01*
X56535Y-52135D01*
X56649Y-52135D01*
X56725Y-52174D01*
X56763Y-52250D01*
X56763Y-52669D01*
X56763Y-52250D02*
X56801Y-52174D01*
X56878Y-52135D01*
X56992Y-52135D01*
X57068Y-52174D01*
X57106Y-52250D01*
X57106Y-52669D01*
X57487Y-52669D02*
X57487Y-52135D01*
X57487Y-52212D02*
X57526Y-52174D01*
X57602Y-52135D01*
X57716Y-52135D01*
X57792Y-52174D01*
X57830Y-52250D01*
X57830Y-52669D01*
X57830Y-52250D02*
X57868Y-52174D01*
X57945Y-52135D01*
X58059Y-52135D01*
X58135Y-52174D01*
X58173Y-52250D01*
X58173Y-52669D01*
X59393Y-52974D02*
X59355Y-52935D01*
X59279Y-52821D01*
X59241Y-52745D01*
X59203Y-52631D01*
X59164Y-52440D01*
X59164Y-52288D01*
X59203Y-52097D01*
X59241Y-51983D01*
X59279Y-51907D01*
X59355Y-51793D01*
X59393Y-51755D01*
X60117Y-52669D02*
X59659Y-52669D01*
X59888Y-52669D02*
X59888Y-51869D01*
X59812Y-51983D01*
X59736Y-52059D01*
X59659Y-52097D01*
X60612Y-51869D02*
X60688Y-51869D01*
X60764Y-51907D01*
X60802Y-51945D01*
X60840Y-52021D01*
X60879Y-52174D01*
X60879Y-52364D01*
X60840Y-52516D01*
X60802Y-52593D01*
X60764Y-52631D01*
X60688Y-52669D01*
X60612Y-52669D01*
X60536Y-52631D01*
X60498Y-52593D01*
X60459Y-52516D01*
X60421Y-52364D01*
X60421Y-52174D01*
X60459Y-52021D01*
X60498Y-51945D01*
X60536Y-51907D01*
X60612Y-51869D01*
X61831Y-52669D02*
X61831Y-51869D01*
X62174Y-52669D02*
X62174Y-52250D01*
X62136Y-52174D01*
X62060Y-52135D01*
X61946Y-52135D01*
X61870Y-52174D01*
X61831Y-52212D01*
X62670Y-52669D02*
X62594Y-52631D01*
X62555Y-52593D01*
X62517Y-52516D01*
X62517Y-52288D01*
X62555Y-52212D01*
X62594Y-52174D01*
X62670Y-52135D01*
X62784Y-52135D01*
X62860Y-52174D01*
X62898Y-52212D01*
X62936Y-52288D01*
X62936Y-52516D01*
X62898Y-52593D01*
X62860Y-52631D01*
X62784Y-52669D01*
X62670Y-52669D01*
X63394Y-52669D02*
X63318Y-52631D01*
X63279Y-52555D01*
X63279Y-51869D01*
X64003Y-52631D02*
X63927Y-52669D01*
X63775Y-52669D01*
X63698Y-52631D01*
X63660Y-52555D01*
X63660Y-52250D01*
X63698Y-52174D01*
X63775Y-52135D01*
X63927Y-52135D01*
X64003Y-52174D01*
X64041Y-52250D01*
X64041Y-52326D01*
X63660Y-52402D01*
X64346Y-52631D02*
X64423Y-52669D01*
X64575Y-52669D01*
X64651Y-52631D01*
X64689Y-52555D01*
X64689Y-52516D01*
X64651Y-52440D01*
X64575Y-52402D01*
X64461Y-52402D01*
X64384Y-52364D01*
X64346Y-52288D01*
X64346Y-52250D01*
X64384Y-52174D01*
X64461Y-52135D01*
X64575Y-52135D01*
X64651Y-52174D01*
X64956Y-52974D02*
X64994Y-52935D01*
X65071Y-52821D01*
X65109Y-52745D01*
X65147Y-52631D01*
X65185Y-52440D01*
X65185Y-52288D01*
X65147Y-52097D01*
X65109Y-51983D01*
X65071Y-51907D01*
X64994Y-51793D01*
X64956Y-51755D01*
G54D10*
X47266Y-53401D02*
X47254Y-53523D01*
X47218Y-53641D01*
X47160Y-53749D01*
X47083Y-53844D01*
X46988Y-53923D01*
X46880Y-53981D01*
X46762Y-54018D01*
X46640Y-54030D01*
X46518Y-54019D01*
X46400Y-53985D01*
X46292Y-53928D01*
X46196Y-53851D01*
X46117Y-53756D01*
X46057Y-53649D01*
X46020Y-53531D01*
X46007Y-53409D01*
X46017Y-53288D01*
X46051Y-53170D01*
X46107Y-53060D01*
X46183Y-52964D01*
X46277Y-52884D01*
X46384Y-52824D01*
X46501Y-52786D01*
X46623Y-52772D01*
X46745Y-52781D01*
X46863Y-52814D01*
X46973Y-52870D01*
X47070Y-52945D01*
X47150Y-53038D01*
X47211Y-53145D01*
X47250Y-53262D01*
X47265Y-53384D01*
X47266Y-53401D01*
X46006Y-52771D02*
X47266Y-54031D01*
X47266Y-52771D02*
X46006Y-54031D01*
G54D12*
X47809Y-52925D02*
X47885Y-52925D01*
X47961Y-52963D01*
X47999Y-53001D01*
X48037Y-53077D01*
X48076Y-53230D01*
X48076Y-53420D01*
X48037Y-53572D01*
X47999Y-53649D01*
X47961Y-53687D01*
X47885Y-53725D01*
X47809Y-53725D01*
X47733Y-53687D01*
X47695Y-53649D01*
X47656Y-53572D01*
X47618Y-53420D01*
X47618Y-53230D01*
X47656Y-53077D01*
X47695Y-53001D01*
X47733Y-52963D01*
X47809Y-52925D01*
X48418Y-53649D02*
X48457Y-53687D01*
X48418Y-53725D01*
X48380Y-53687D01*
X48418Y-53649D01*
X48418Y-53725D01*
X49219Y-53725D02*
X48761Y-53725D01*
X48990Y-53725D02*
X48990Y-52925D01*
X48914Y-53039D01*
X48838Y-53115D01*
X48761Y-53153D01*
X49523Y-53001D02*
X49561Y-52963D01*
X49638Y-52925D01*
X49828Y-52925D01*
X49904Y-52963D01*
X49942Y-53001D01*
X49981Y-53077D01*
X49981Y-53153D01*
X49942Y-53268D01*
X49485Y-53725D01*
X49981Y-53725D01*
X50666Y-52925D02*
X50514Y-52925D01*
X50438Y-52963D01*
X50400Y-53001D01*
X50323Y-53115D01*
X50285Y-53268D01*
X50285Y-53572D01*
X50323Y-53649D01*
X50362Y-53687D01*
X50438Y-53725D01*
X50590Y-53725D01*
X50666Y-53687D01*
X50704Y-53649D01*
X50743Y-53572D01*
X50743Y-53382D01*
X50704Y-53306D01*
X50666Y-53268D01*
X50590Y-53230D01*
X50438Y-53230D01*
X50362Y-53268D01*
X50323Y-53306D01*
X50285Y-53382D01*
X51047Y-52925D02*
X51047Y-53077D01*
X51352Y-52925D02*
X51352Y-53077D01*
X52877Y-52887D02*
X52191Y-53915D01*
X53677Y-52925D02*
X54173Y-52925D01*
X53906Y-53230D01*
X54020Y-53230D01*
X54096Y-53268D01*
X54134Y-53306D01*
X54173Y-53382D01*
X54173Y-53572D01*
X54134Y-53649D01*
X54096Y-53687D01*
X54020Y-53725D01*
X53792Y-53725D01*
X53715Y-53687D01*
X53677Y-53649D01*
X54515Y-53649D02*
X54554Y-53687D01*
X54515Y-53725D01*
X54477Y-53687D01*
X54515Y-53649D01*
X54515Y-53725D01*
X54858Y-53001D02*
X54896Y-52963D01*
X54973Y-52925D01*
X55163Y-52925D01*
X55239Y-52963D01*
X55277Y-53001D01*
X55316Y-53077D01*
X55316Y-53153D01*
X55277Y-53268D01*
X54820Y-53725D01*
X55316Y-53725D01*
X55811Y-52925D02*
X55887Y-52925D01*
X55963Y-52963D01*
X56001Y-53001D01*
X56039Y-53077D01*
X56078Y-53230D01*
X56078Y-53420D01*
X56039Y-53572D01*
X56001Y-53649D01*
X55963Y-53687D01*
X55887Y-53725D01*
X55811Y-53725D01*
X55735Y-53687D01*
X55697Y-53649D01*
X55658Y-53572D01*
X55620Y-53420D01*
X55620Y-53230D01*
X55658Y-53077D01*
X55697Y-53001D01*
X55735Y-52963D01*
X55811Y-52925D01*
X56420Y-53725D02*
X56420Y-53191D01*
X56420Y-53268D02*
X56459Y-53230D01*
X56535Y-53191D01*
X56649Y-53191D01*
X56725Y-53230D01*
X56763Y-53306D01*
X56763Y-53725D01*
X56763Y-53306D02*
X56801Y-53230D01*
X56878Y-53191D01*
X56992Y-53191D01*
X57068Y-53230D01*
X57106Y-53306D01*
X57106Y-53725D01*
X57487Y-53725D02*
X57487Y-53191D01*
X57487Y-53268D02*
X57526Y-53230D01*
X57602Y-53191D01*
X57716Y-53191D01*
X57792Y-53230D01*
X57830Y-53306D01*
X57830Y-53725D01*
X57830Y-53306D02*
X57868Y-53230D01*
X57945Y-53191D01*
X58059Y-53191D01*
X58135Y-53230D01*
X58173Y-53306D01*
X58173Y-53725D01*
X59393Y-54030D02*
X59355Y-53991D01*
X59279Y-53877D01*
X59241Y-53801D01*
X59203Y-53687D01*
X59164Y-53496D01*
X59164Y-53344D01*
X59203Y-53153D01*
X59241Y-53039D01*
X59279Y-52963D01*
X59355Y-52849D01*
X59393Y-52811D01*
X60040Y-53191D02*
X60040Y-53725D01*
X59850Y-52887D02*
X59659Y-53458D01*
X60155Y-53458D01*
X61069Y-53725D02*
X61069Y-52925D01*
X61412Y-53725D02*
X61412Y-53306D01*
X61374Y-53230D01*
X61298Y-53191D01*
X61184Y-53191D01*
X61108Y-53230D01*
X61069Y-53268D01*
X61908Y-53725D02*
X61832Y-53687D01*
X61793Y-53649D01*
X61755Y-53572D01*
X61755Y-53344D01*
X61793Y-53268D01*
X61832Y-53230D01*
X61908Y-53191D01*
X62022Y-53191D01*
X62098Y-53230D01*
X62136Y-53268D01*
X62174Y-53344D01*
X62174Y-53572D01*
X62136Y-53649D01*
X62098Y-53687D01*
X62022Y-53725D01*
X61908Y-53725D01*
X62632Y-53725D02*
X62556Y-53687D01*
X62517Y-53611D01*
X62517Y-52925D01*
X63241Y-53687D02*
X63165Y-53725D01*
X63013Y-53725D01*
X62936Y-53687D01*
X62898Y-53611D01*
X62898Y-53306D01*
X62936Y-53230D01*
X63013Y-53191D01*
X63165Y-53191D01*
X63241Y-53230D01*
X63279Y-53306D01*
X63279Y-53382D01*
X62898Y-53458D01*
X63584Y-53687D02*
X63661Y-53725D01*
X63813Y-53725D01*
X63889Y-53687D01*
X63927Y-53611D01*
X63927Y-53572D01*
X63889Y-53496D01*
X63813Y-53458D01*
X63699Y-53458D01*
X63622Y-53420D01*
X63584Y-53344D01*
X63584Y-53306D01*
X63622Y-53230D01*
X63699Y-53191D01*
X63813Y-53191D01*
X63889Y-53230D01*
X64194Y-54030D02*
X64232Y-53991D01*
X64309Y-53877D01*
X64347Y-53801D01*
X64385Y-53687D01*
X64423Y-53496D01*
X64423Y-53344D01*
X64385Y-53153D01*
X64347Y-53039D01*
X64309Y-52963D01*
X64232Y-52849D01*
X64194Y-52811D01*
M02*
